<svg width="97" height="16" viewBox="0 0 97 16" fill="none" xmlns="http://www.w3.org/2000/svg">
<rect width="97" height="16" fill="white"/>
<path d="M5.66699 5.60352L5.74219 6.47168C6.26628 5.80176 6.97038 5.4668 7.85449 5.4668C8.78874 5.4668 9.41992 5.83822 9.74805 6.58105C10.2493 5.83822 10.974 5.4668 11.9219 5.4668C13.4212 5.4668 14.1914 6.3737 14.2324 8.1875V13H11.9219V8.33105C11.9219 7.9528 11.8581 7.67708 11.7305 7.50391C11.6029 7.33073 11.3704 7.24414 11.0332 7.24414C10.5775 7.24414 10.238 7.44694 10.0146 7.85254L10.0215 7.94824V13H7.71094V8.34473C7.71094 7.95736 7.64941 7.67708 7.52637 7.50391C7.40332 7.33073 7.16862 7.24414 6.82227 7.24414C6.38021 7.24414 6.04297 7.44694 5.81055 7.85254V13H3.50684V5.60352H5.66699ZM19.127 13.1367C17.9922 13.1367 17.0739 12.7995 16.3721 12.125C15.6702 11.446 15.3193 10.5641 15.3193 9.47949V9.28809C15.3193 8.53158 15.4583 7.86393 15.7363 7.28516C16.0189 6.70638 16.429 6.25977 16.9668 5.94531C17.5046 5.6263 18.1426 5.4668 18.8809 5.4668C19.9199 5.4668 20.7402 5.79036 21.3418 6.4375C21.9434 7.08008 22.2441 7.97786 22.2441 9.13086V10.0264H17.6641C17.7461 10.4411 17.9261 10.7669 18.2041 11.0039C18.4821 11.2409 18.8421 11.3594 19.2842 11.3594C20.0133 11.3594 20.583 11.1042 20.9932 10.5938L22.0459 11.8379C21.7588 12.2344 21.3509 12.5511 20.8223 12.7881C20.2982 13.0205 19.7331 13.1367 19.127 13.1367ZM18.8672 7.24414C18.1927 7.24414 17.7917 7.69076 17.6641 8.58398H19.9883V8.40625C19.9974 8.03711 19.904 7.75228 19.708 7.55176C19.512 7.34668 19.2318 7.24414 18.8672 7.24414ZM25.3545 5.60352L25.4297 6.47168C25.9538 5.80176 26.6579 5.4668 27.542 5.4668C28.4762 5.4668 29.1074 5.83822 29.4355 6.58105C29.9368 5.83822 30.6615 5.4668 31.6094 5.4668C33.1087 5.4668 33.8789 6.3737 33.9199 8.1875V13H31.6094V8.33105C31.6094 7.9528 31.5456 7.67708 31.418 7.50391C31.2904 7.33073 31.0579 7.24414 30.7207 7.24414C30.265 7.24414 29.9255 7.44694 29.7021 7.85254L29.709 7.94824V13H27.3984V8.34473C27.3984 7.95736 27.3369 7.67708 27.2139 7.50391C27.0908 7.33073 26.8561 7.24414 26.5098 7.24414C26.0677 7.24414 25.7305 7.44694 25.498 7.85254V13H23.1943V5.60352H25.3545ZM38.8145 13.1367C37.6797 13.1367 36.7614 12.7995 36.0596 12.125C35.3577 11.446 35.0068 10.5641 35.0068 9.47949V9.28809C35.0068 8.53158 35.1458 7.86393 35.4238 7.28516C35.7064 6.70638 36.1165 6.25977 36.6543 5.94531C37.1921 5.6263 37.8301 5.4668 38.5684 5.4668C39.6074 5.4668 40.4277 5.79036 41.0293 6.4375C41.6309 7.08008 41.9316 7.97786 41.9316 9.13086V10.0264H37.3516C37.4336 10.4411 37.6136 10.7669 37.8916 11.0039C38.1696 11.2409 38.5296 11.3594 38.9717 11.3594C39.7008 11.3594 40.2705 11.1042 40.6807 10.5938L41.7334 11.8379C41.4463 12.2344 41.0384 12.5511 40.5098 12.7881C39.9857 13.0205 39.4206 13.1367 38.8145 13.1367ZM38.5547 7.24414C37.8802 7.24414 37.4792 7.69076 37.3516 8.58398H39.6758V8.40625C39.6849 8.03711 39.5915 7.75228 39.3955 7.55176C39.1995 7.34668 38.9193 7.24414 38.5547 7.24414ZM44.9805 5.60352L45.0557 6.47168C45.5661 5.80176 46.2702 5.4668 47.168 5.4668C47.9382 5.4668 48.5124 5.69694 48.8906 6.15723C49.2734 6.61751 49.4717 7.31022 49.4854 8.23535V13H47.1748V8.33105C47.1748 7.95736 47.0996 7.68392 46.9492 7.51074C46.7988 7.33301 46.5254 7.24414 46.1289 7.24414C45.6777 7.24414 45.3428 7.42188 45.124 7.77734V13H42.8203V5.60352H44.9805ZM53.4502 3.76465V5.60352H54.667V7.20312H53.4502V10.5869C53.4502 10.8649 53.5003 11.0586 53.6006 11.168C53.7008 11.2773 53.8991 11.332 54.1953 11.332C54.4232 11.332 54.6146 11.3184 54.7695 11.291V12.9385C54.3548 13.0706 53.9219 13.1367 53.4707 13.1367C52.6777 13.1367 52.0921 12.9499 51.7139 12.5762C51.3356 12.2025 51.1465 11.6351 51.1465 10.874V7.20312H50.2031V5.60352H51.1465V3.76465H53.4502ZM55.084 9.2334C55.084 8.49512 55.2275 7.83887 55.5146 7.26465C55.8018 6.68587 56.2142 6.24154 56.752 5.93164C57.2897 5.62174 57.9209 5.4668 58.6455 5.4668C59.7529 5.4668 60.6257 5.81087 61.2637 6.49902C61.9017 7.18262 62.2207 8.11458 62.2207 9.29492V9.37695C62.2207 10.5299 61.8994 11.446 61.2568 12.125C60.6188 12.7995 59.7529 13.1367 58.6592 13.1367C57.6064 13.1367 56.7611 12.8223 56.123 12.1934C55.485 11.5599 55.141 10.7031 55.0908 9.62305L55.084 9.2334ZM57.3877 9.37695C57.3877 10.0605 57.4948 10.5618 57.709 10.8809C57.9232 11.1999 58.2399 11.3594 58.6592 11.3594C59.4795 11.3594 59.8988 10.7282 59.917 9.46582V9.2334C59.917 7.90723 59.4932 7.24414 58.6455 7.24414C57.8753 7.24414 57.4583 7.81608 57.3945 8.95996L57.3877 9.37695ZM68.8994 5.60352L68.9746 6.47168C69.4987 5.80176 70.2028 5.4668 71.0869 5.4668C72.0212 5.4668 72.6523 5.83822 72.9805 6.58105C73.4818 5.83822 74.2064 5.4668 75.1543 5.4668C76.6536 5.4668 77.4238 6.3737 77.4648 8.1875V13H75.1543V8.33105C75.1543 7.9528 75.0905 7.67708 74.9629 7.50391C74.8353 7.33073 74.6029 7.24414 74.2656 7.24414C73.8099 7.24414 73.4704 7.44694 73.2471 7.85254L73.2539 7.94824V13H70.9434V8.34473C70.9434 7.95736 70.8818 7.67708 70.7588 7.50391C70.6357 7.33073 70.401 7.24414 70.0547 7.24414C69.6126 7.24414 69.2754 7.44694 69.043 7.85254V13H66.7393V5.60352H68.8994ZM78.4902 9.2334C78.4902 8.49512 78.6338 7.83887 78.9209 7.26465C79.208 6.68587 79.6204 6.24154 80.1582 5.93164C80.696 5.62174 81.3271 5.4668 82.0518 5.4668C83.1592 5.4668 84.0319 5.81087 84.6699 6.49902C85.3079 7.18262 85.627 8.11458 85.627 9.29492V9.37695C85.627 10.5299 85.3057 11.446 84.6631 12.125C84.0251 12.7995 83.1592 13.1367 82.0654 13.1367C81.0127 13.1367 80.1673 12.8223 79.5293 12.1934C78.8913 11.5599 78.5472 10.7031 78.4971 9.62305L78.4902 9.2334ZM80.7939 9.37695C80.7939 10.0605 80.901 10.5618 81.1152 10.8809C81.3294 11.1999 81.6462 11.3594 82.0654 11.3594C82.8857 11.3594 83.305 10.7282 83.3232 9.46582V9.2334C83.3232 7.90723 82.8994 7.24414 82.0518 7.24414C81.2816 7.24414 80.8646 7.81608 80.8008 8.95996L80.7939 9.37695ZM91.1162 7.68848L90.3574 7.63379C89.6328 7.63379 89.168 7.86165 88.9629 8.31738V13H86.6592V5.60352H88.8193L88.8945 6.55371C89.2819 5.8291 89.8219 5.4668 90.5146 5.4668C90.7607 5.4668 90.9749 5.49414 91.1572 5.54883L91.1162 7.68848ZM94.377 13H92.0664V5.60352H94.377V13ZM91.9297 3.69629C91.9297 3.36816 92.0482 3.09928 92.2852 2.88965C92.5221 2.68001 92.8298 2.5752 93.208 2.5752C93.5863 2.5752 93.8939 2.68001 94.1309 2.88965C94.3678 3.09928 94.4863 3.36816 94.4863 3.69629C94.4863 4.02441 94.3678 4.29329 94.1309 4.50293C93.8939 4.71257 93.5863 4.81738 93.208 4.81738C92.8298 4.81738 92.5221 4.71257 92.2852 4.50293C92.0482 4.29329 91.9297 4.02441 91.9297 3.69629Z" fill="black" fill-opacity="0.02"/>
</svg>
